<svg width="31" height="29" viewBox="0 0 31 29" fill="none" xmlns="http://www.w3.org/2000/svg">
<g clip-path="url(#clip0_4_2)">
<path d="M29.7778 10.142C29.7778 12.2899 28.9531 14.3529 27.4803 15.879C24.0902 19.3931 20.802 23.0574 17.2851 26.444C16.479 27.209 15.2003 27.1811 14.4289 26.3815L4.29689 15.879C1.23437 12.7045 1.23437 7.57949 4.29689 4.40496C7.3895 1.19924 12.4277 1.19924 15.5203 4.40496L15.8886 4.7867L16.2567 4.40518C17.7395 2.86736 19.7589 2 21.8685 2C23.9781 2 25.9974 2.86728 27.4803 4.40496C28.9532 5.93118 29.7778 7.99413 29.7778 10.142Z" stroke="#666666" stroke-width="2.08333" stroke-linejoin="round"/>
</g>
<defs>
<clipPath id="clip0_4_2">
<rect width="31" height="29" fill="white"/>
</clipPath>
</defs>
</svg>
